<svg width="106" height="30" viewBox="0 0 106 30" fill="none" xmlns="http://www.w3.org/2000/svg">
<g clip-path="url(#clip0_20458_3078)">
<path d="M15 11.2859C12.951 11.2859 11.286 12.9479 11.289 14.9999C11.292 17.0519 12.951 18.7139 15 18.7139C17.049 18.7139 18.714 17.0489 18.714 14.9999C18.714 12.9509 17.052 11.2889 15 11.2859ZM15 17.4899C13.626 17.4899 12.51 16.3739 12.51 14.9999C12.51 13.6259 13.626 12.5099 15 12.5099C16.374 12.5099 17.49 13.6259 17.49 14.9999C17.49 16.3739 16.374 17.4899 15 17.4899ZM36.003 -0.000104626C32.076 -0.00610463 28.302 1.5359 25.5 4.2899C22.701 1.5359 18.927 -0.00610463 15 -0.000104626C6.717 -0.000104626 0 6.71689 0 14.9999C0 23.2829 6.717 29.9999 15 29.9999C18.927 30.0059 22.701 28.4639 25.503 25.7099C28.305 28.4639 32.076 30.0059 36.006 29.9999C44.289 29.9999 51.006 23.2829 51.006 14.9999C51.006 6.71689 44.289 -0.000104626 36.003 -0.000104626ZM36.003 28.8299C32.229 28.8299 28.806 27.3089 26.31 24.8519C27.396 23.6069 28.266 22.1879 28.89 20.6579H27.612C27.069 21.8609 26.361 22.9799 25.503 23.9819C24.645 22.9799 23.934 21.8609 23.391 20.6579H22.113C22.737 22.1879 23.607 23.6039 24.693 24.8519C22.194 27.3089 18.771 28.8299 15 28.8299C7.374 28.8299 1.17 22.6259 1.17 14.9999C1.17 7.3739 7.374 1.1699 15 1.1699C18.774 1.1699 22.197 2.6909 24.693 5.1479C23.607 6.3929 22.737 7.81189 22.113 9.34189H23.391C23.934 8.1389 24.645 7.0199 25.503 6.0179C26.361 7.0199 27.072 8.1389 27.615 9.34189H28.893C28.269 7.81189 27.399 6.3959 26.313 5.1479C28.809 2.6909 32.232 1.1699 36.006 1.1699C43.632 1.1699 49.836 7.3739 49.836 14.9999C49.836 22.6259 43.629 28.8299 36.003 28.8299ZM44.961 15.6929C45.732 15.3509 46.269 14.6129 46.29 13.7609C46.311 12.8609 45.801 12.0839 44.994 11.7029C44.49 11.4629 43.95 11.4179 43.401 11.4179H40.986V18.5789H42.243V16.0049H43.767L45.303 18.5789H46.779L44.961 15.6929ZM45.024 13.6799C45.024 14.0369 44.877 14.3759 44.592 14.5979C44.313 14.8139 43.965 14.8979 43.62 14.9069C43.296 14.9159 42.378 14.9069 42.243 14.9069V12.5249H43.233C43.683 12.5249 44.172 12.5069 44.562 12.7679C44.871 12.9749 45.024 13.3169 45.024 13.6799ZM14.607 9.7979C14.607 10.1789 14.298 10.4879 13.917 10.4879C13.536 10.4879 13.227 10.1789 13.227 9.7979C13.227 9.4169 13.536 9.1079 13.917 9.1079C14.298 9.1079 14.607 9.4169 14.607 9.7979ZM16.773 9.7979C16.773 10.1789 16.464 10.4879 16.083 10.4879C15.702 10.4879 15.393 10.1789 15.393 9.7979C15.393 9.4169 15.702 9.1079 16.083 9.1079C16.464 9.1079 16.773 9.4139 16.773 9.7979ZM24.153 15.6929C24.924 15.3509 25.461 14.6129 25.482 13.7609C25.503 12.8609 24.993 12.0839 24.186 11.7029C23.682 11.4629 23.142 11.4179 22.593 11.4179H20.178V18.5789H21.435V16.0049H22.959L24.495 18.5789H25.971L24.153 15.6929ZM24.213 13.6799C24.213 14.0369 24.066 14.3759 23.781 14.5979C23.502 14.8139 23.154 14.8979 22.809 14.9069C22.485 14.9159 21.567 14.9069 21.432 14.9069V12.5249H22.422C22.872 12.5249 23.361 12.5069 23.751 12.7679C24.063 12.9749 24.216 13.3169 24.213 13.6799ZM32.604 15.4559C32.457 15.2189 32.253 15.0209 32.013 14.8769C32.232 14.7419 32.418 14.5559 32.55 14.3369C32.709 14.0729 32.787 13.7639 32.787 13.4249C32.787 12.8009 32.568 12.3029 32.136 11.9489C31.71 11.5979 31.125 11.4209 30.402 11.4209H27.453V18.5849H30.441C31.173 18.5849 31.767 18.4049 32.205 18.0479C32.649 17.6879 32.877 17.1599 32.877 16.4849C32.874 16.0829 32.784 15.7379 32.604 15.4559ZM31.329 17.1599C31.125 17.3369 30.825 17.4269 30.438 17.4269H28.671V15.5069H30.363C30.819 15.5069 31.149 15.5939 31.344 15.7619C31.539 15.9329 31.632 16.1579 31.632 16.4609C31.632 16.7579 31.533 16.9859 31.329 17.1599ZM31.281 14.0729C31.104 14.2439 30.819 14.3309 30.429 14.3309H28.671V12.5609H30.399C30.786 12.5609 31.08 12.6389 31.269 12.7919C31.458 12.9449 31.545 13.1459 31.545 13.4219C31.548 13.6889 31.461 13.9019 31.281 14.0729ZM35.799 12.6119V14.3939H38.736V15.5879H35.799V17.3789H39.336V18.5819H34.578V11.4179H39.336V12.6119H35.799ZM7.512 14.9999L11.094 18.5789H9.477L6.285 15.4139V18.5819H5.028V11.4179H6.285V14.6039L9.477 11.4179H11.094L7.512 14.9999Z" fill="black"/>
</g>
<path d="M70.5259 9.148V17.464C70.5259 18.352 70.3459 19.156 69.9859 19.876C69.6259 20.584 69.0739 21.148 68.3299 21.568C67.5859 21.976 66.6499 22.18 65.5219 22.18C63.9139 22.18 62.6959 21.748 61.8679 20.884C61.0399 20.008 60.6259 18.856 60.6259 17.428V9.148H62.2459V17.482C62.2459 18.526 62.5219 19.336 63.0739 19.912C63.6379 20.488 64.4839 20.776 65.6119 20.776C66.7759 20.776 67.6159 20.47 68.1319 19.858C68.6599 19.234 68.9239 18.436 68.9239 17.464V9.148H70.5259ZM77.5359 22H72.8919V21.064L74.4039 20.722V10.444L72.8919 10.084V9.148H77.5359V10.084L76.0239 10.444V20.722L77.5359 21.064V22ZM94.0893 22H92.1813L87.6273 15.862L86.3133 17.014V22H84.6933V9.148H86.3133V15.484C86.6733 15.076 87.0393 14.668 87.4113 14.26C87.7833 13.852 88.1553 13.444 88.5273 13.036L92.0013 9.148H93.8913L88.7973 14.746L94.0893 22ZM96.4318 8.734C96.6718 8.734 96.8818 8.818 97.0618 8.986C97.2538 9.142 97.3498 9.394 97.3498 9.742C97.3498 10.09 97.2538 10.348 97.0618 10.516C96.8818 10.672 96.6718 10.75 96.4318 10.75C96.1678 10.75 95.9458 10.672 95.7658 10.516C95.5858 10.348 95.4958 10.09 95.4958 9.742C95.4958 9.394 95.5858 9.142 95.7658 8.986C95.9458 8.818 96.1678 8.734 96.4318 8.734ZM97.2058 12.352V22H95.6218V12.352H97.2058ZM103.484 20.884C103.724 20.884 103.97 20.866 104.222 20.83C104.474 20.794 104.678 20.746 104.834 20.686V21.892C104.666 21.976 104.426 22.042 104.114 22.09C103.802 22.15 103.502 22.18 103.214 22.18C102.71 22.18 102.242 22.096 101.81 21.928C101.39 21.748 101.048 21.442 100.784 21.01C100.52 20.578 100.388 19.972 100.388 19.192V13.576H99.0204V12.82L100.406 12.19L101.036 10.138H101.972V12.352H104.762V13.576H101.972V19.156C101.972 19.744 102.11 20.182 102.386 20.47C102.674 20.746 103.04 20.884 103.484 20.884Z" fill="#232625"/>
<defs>
<clipPath id="clip0_20458_3078">
<rect width="51.006" height="30" fill="white"/>
</clipPath>
</defs>
</svg>
