<svg width="106" height="30" viewBox="0 0 106 30" fill="none" xmlns="http://www.w3.org/2000/svg">
<g clip-path="url(#clip0_20458_3080)">
<path d="M15 11.2875C14.2657 11.2875 13.548 11.5052 12.9374 11.9132C12.3269 12.3211 11.8511 12.9009 11.5701 13.5793C11.2891 14.2577 11.2156 15.0041 11.3588 15.7243C11.5021 16.4444 11.8557 17.1059 12.3749 17.6251C12.8941 18.1444 13.5556 18.4979 14.2757 18.6412C14.9959 18.7844 15.7423 18.7109 16.4207 18.4299C17.0991 18.1489 17.6789 17.6731 18.0868 17.0626C18.4948 16.4521 18.7125 15.7343 18.7125 15C18.7125 14.5125 18.6165 14.0297 18.43 13.5793C18.2434 13.1288 17.97 12.7195 17.6252 12.3748C17.2805 12.03 16.8712 11.7566 16.4208 11.57C15.9703 11.3835 15.4875 11.2875 15 11.2875ZM15 17.49C14.5075 17.49 14.0261 17.344 13.6166 17.0704C13.2072 16.7968 12.888 16.4079 12.6995 15.9529C12.5111 15.4979 12.4618 14.9973 12.5578 14.5142C12.6539 14.0312 12.8911 13.5875 13.2393 13.2393C13.5875 12.8911 14.0312 12.6539 14.5142 12.5579C14.9972 12.4618 15.4979 12.5111 15.9529 12.6996C16.4079 12.888 16.7968 13.2072 17.0704 13.6166C17.344 14.0261 17.49 14.5075 17.49 15C17.49 15.6604 17.2277 16.2937 16.7607 16.7607C16.2937 17.2277 15.6604 17.49 15 17.49ZM36.0042 1.37508e-05C32.0758 -0.00531061 28.3032 1.53577 25.5021 4.29001C22.701 1.53577 18.9284 -0.00531061 15 1.37508e-05C6.7158 1.37508e-05 0 6.71581 0 15C0 23.2842 6.7158 30 15 30C18.9284 30.0053 22.701 28.4643 25.5021 25.71C28.3032 28.4643 32.0758 30.0053 36.0042 30C44.2887 30 51.0042 23.2842 51.0042 15C51.0042 6.71581 44.2887 1.37508e-05 36.0042 1.37508e-05ZM36.0042 28.83C32.2314 28.83 28.8084 27.3099 26.3106 24.852C27.3956 23.6057 28.2674 22.1887 28.8906 20.6583H27.6117C27.07 21.8613 26.3596 22.9809 25.5021 23.9835C24.6441 22.9811 23.9333 21.8614 23.3913 20.6583H22.1121C22.7353 22.1887 23.6071 23.6057 24.6921 24.852C22.1946 27.3099 18.7713 28.83 14.9985 28.83C7.3725 28.83 1.1685 22.626 1.1685 15C1.1685 7.37401 7.3725 1.17001 14.9985 1.17001C18.7713 1.17001 22.1946 2.69011 24.6921 5.14801C23.6071 6.39432 22.7353 7.81129 22.1121 9.34171H23.391C23.9331 8.13862 24.6439 7.01895 25.5021 6.01651C26.36 7.01905 27.0708 8.1387 27.6129 9.34171H28.8921C28.2689 7.81129 27.3971 6.39432 26.3121 5.14801C28.8099 2.69011 32.2329 1.17001 36.0057 1.17001C43.6317 1.17001 49.8357 7.37401 49.8357 15C49.8357 22.626 43.6302 28.83 36.0042 28.83ZM44.9616 15.6936C45.7314 15.3528 46.2699 14.6136 46.2909 13.7622C46.3128 12.8622 45.8019 12.0864 44.9952 11.7039C44.4897 11.4639 43.9518 11.4186 43.4016 11.4186H40.9857V18.5808H42.2421V16.0077H43.7673L45.3027 18.5814H46.7775L44.9616 15.6936ZM45.0243 13.6815C45.0243 14.0388 44.8761 14.3787 44.5911 14.5986C44.3133 14.8131 43.9644 14.8986 43.6191 14.9073C43.2954 14.9166 42.3777 14.9073 42.243 14.9073V12.5253H43.233C43.683 12.5253 44.172 12.5076 44.5629 12.7692C44.8704 12.9762 45.0243 13.317 45.0243 13.6815ZM14.6079 9.79681C14.6079 9.93328 14.5674 10.0667 14.4916 10.1802C14.4158 10.2936 14.308 10.3821 14.182 10.4343C14.0559 10.4865 13.9171 10.5002 13.7833 10.4736C13.6494 10.4469 13.5265 10.3812 13.43 10.2847C13.3335 10.1882 13.2678 10.0653 13.2412 9.93143C13.2145 9.79758 13.2282 9.65884 13.2804 9.53276C13.3326 9.40668 13.4211 9.29892 13.5346 9.2231C13.648 9.14728 13.7814 9.10681 13.9179 9.10681C14.1009 9.10681 14.2764 9.17951 14.4058 9.30891C14.5352 9.43831 14.6079 9.61381 14.6079 9.79681ZM16.7718 9.79681C16.7718 9.93328 16.7313 10.0667 16.6555 10.1802C16.5797 10.2936 16.4719 10.3821 16.3459 10.4343C16.2198 10.4865 16.081 10.5002 15.9472 10.4736C15.8133 10.4469 15.6904 10.3812 15.5939 10.2847C15.4974 10.1882 15.4317 10.0653 15.4051 9.93143C15.3784 9.79758 15.3921 9.65884 15.4443 9.53276C15.4965 9.40668 15.585 9.29892 15.6985 9.2231C15.8119 9.14728 15.9453 9.10681 16.0818 9.10681C16.1724 9.10677 16.2622 9.12459 16.3459 9.15925C16.4297 9.19391 16.5058 9.24473 16.5699 9.3088C16.634 9.37288 16.6849 9.44896 16.7195 9.53269C16.7542 9.61643 16.7721 9.70618 16.7721 9.79681H16.7718ZM24.1518 15.6936C24.9216 15.3528 25.4601 14.6136 25.4811 13.7622C25.503 12.8622 24.9921 12.0864 24.1854 11.7039C23.6799 11.4639 23.142 11.4186 22.5918 11.4186H20.1771V18.5808H21.4344V16.0077H22.9596L24.495 18.5814H25.9698L24.1518 15.6936ZM24.2145 13.6815C24.2145 14.0388 24.0663 14.3787 23.7813 14.5986C23.5035 14.8131 23.1546 14.8986 22.8093 14.9073C22.4856 14.9166 21.5679 14.9073 21.4332 14.9073V12.5253H22.4232C22.8732 12.5253 23.3622 12.5076 23.7531 12.7692C24.0621 12.9762 24.2157 13.317 24.2157 13.6815H24.2145ZM32.6037 15.4563C32.4555 15.2189 32.2527 15.0205 32.0121 14.8776C32.2317 14.7432 32.4159 14.558 32.5491 14.3376C32.7072 14.0721 32.787 13.7646 32.787 13.4244C32.787 12.7989 32.568 12.3018 32.136 11.9469C31.71 11.5968 31.1265 11.4192 30.4011 11.4192H27.4521V18.582H30.4392C31.1703 18.582 31.7637 18.402 32.2023 18.0453C32.6472 17.6853 32.8728 17.1579 32.8728 16.4817C32.8728 16.083 32.7825 15.738 32.6049 15.4563H32.6037ZM31.329 17.1615C31.1238 17.3379 30.8241 17.4276 30.438 17.4276H28.6713V15.5076H30.3621C30.8172 15.5076 31.1472 15.5937 31.3434 15.7638C31.5396 15.9339 31.6323 16.1613 31.6323 16.4634C31.6332 16.7577 31.5342 16.9863 31.3302 17.1615H31.329ZM31.2819 14.0745C31.1055 14.2452 30.8184 14.3319 30.4287 14.3319H28.6713V12.5619H30.3999C30.7869 12.5619 31.0797 12.6393 31.2699 12.792C31.4601 12.9447 31.5462 13.1475 31.5462 13.422C31.5474 13.6896 31.461 13.9026 31.2831 14.0745H31.2819ZM35.7978 12.6123V14.3937H38.7354V15.5871H35.7978V17.3781H39.3354V18.5811H34.5771V11.4189H39.3366V12.6123H35.7978ZM7.5129 15L11.0943 18.5802H9.477L6.2844 15.4125V18.5805H5.0271V11.4183H6.2844V14.6037L9.4776 11.4183H11.0949L7.5129 15Z" fill="white"/>
<path d="M15 11.2875C14.2657 11.2875 13.548 11.5052 12.9374 11.9132C12.3269 12.3211 11.8511 12.9009 11.5701 13.5793C11.2891 14.2577 11.2156 15.0041 11.3588 15.7243C11.5021 16.4444 11.8557 17.1059 12.3749 17.6251C12.8941 18.1444 13.5556 18.4979 14.2757 18.6412C14.9959 18.7844 15.7423 18.7109 16.4207 18.4299C17.0991 18.1489 17.6789 17.6731 18.0868 17.0626C18.4948 16.4521 18.7125 15.7343 18.7125 15C18.7125 14.5125 18.6165 14.0297 18.43 13.5793C18.2434 13.1288 17.97 12.7195 17.6252 12.3748C17.2805 12.03 16.8712 11.7566 16.4208 11.57C15.9703 11.3835 15.4875 11.2875 15 11.2875ZM15 17.49C14.5075 17.49 14.0261 17.344 13.6166 17.0704C13.2072 16.7968 12.888 16.4079 12.6995 15.9529C12.5111 15.4979 12.4618 14.9973 12.5578 14.5142C12.6539 14.0312 12.8911 13.5875 13.2393 13.2393C13.5875 12.8911 14.0312 12.6539 14.5142 12.5579C14.9972 12.4618 15.4979 12.5111 15.9529 12.6996C16.4079 12.888 16.7968 13.2072 17.0704 13.6166C17.344 14.0261 17.49 14.5075 17.49 15C17.49 15.6604 17.2277 16.2937 16.7607 16.7607C16.2937 17.2277 15.6604 17.49 15 17.49ZM36.0042 1.37508e-05C32.0758 -0.00531061 28.3032 1.53577 25.5021 4.29001C22.701 1.53577 18.9284 -0.00531061 15 1.37508e-05C6.7158 1.37508e-05 0 6.71581 0 15C0 23.2842 6.7158 30 15 30C18.9284 30.0053 22.701 28.4643 25.5021 25.71C28.3032 28.4643 32.0758 30.0053 36.0042 30C44.2887 30 51.0042 23.2842 51.0042 15C51.0042 6.71581 44.2887 1.37508e-05 36.0042 1.37508e-05ZM36.0042 28.83C32.2314 28.83 28.8084 27.3099 26.3106 24.852C27.3956 23.6057 28.2674 22.1887 28.8906 20.6583H27.6117C27.07 21.8613 26.3596 22.9809 25.5021 23.9835C24.6441 22.9811 23.9333 21.8614 23.3913 20.6583H22.1121C22.7353 22.1887 23.6071 23.6057 24.6921 24.852C22.1946 27.3099 18.7713 28.83 14.9985 28.83C7.3725 28.83 1.1685 22.626 1.1685 15C1.1685 7.37401 7.3725 1.17001 14.9985 1.17001C18.7713 1.17001 22.1946 2.69011 24.6921 5.14801C23.6071 6.39432 22.7353 7.81129 22.1121 9.34171H23.391C23.9331 8.13862 24.6439 7.01895 25.5021 6.01651C26.36 7.01905 27.0708 8.1387 27.6129 9.34171H28.8921C28.2689 7.81129 27.3971 6.39432 26.3121 5.14801C28.8099 2.69011 32.2329 1.17001 36.0057 1.17001C43.6317 1.17001 49.8357 7.37401 49.8357 15C49.8357 22.626 43.6302 28.83 36.0042 28.83ZM44.9616 15.6936C45.7314 15.3528 46.2699 14.6136 46.2909 13.7622C46.3128 12.8622 45.8019 12.0864 44.9952 11.7039C44.4897 11.4639 43.9518 11.4186 43.4016 11.4186H40.9857V18.5808H42.2421V16.0077H43.7673L45.3027 18.5814H46.7775L44.9616 15.6936ZM45.0243 13.6815C45.0243 14.0388 44.8761 14.3787 44.5911 14.5986C44.3133 14.8131 43.9644 14.8986 43.6191 14.9073C43.2954 14.9166 42.3777 14.9073 42.243 14.9073V12.5253H43.233C43.683 12.5253 44.172 12.5076 44.5629 12.7692C44.8704 12.9762 45.0243 13.317 45.0243 13.6815ZM14.6079 9.79681C14.6079 9.93328 14.5674 10.0667 14.4916 10.1802C14.4158 10.2936 14.308 10.3821 14.182 10.4343C14.0559 10.4865 13.9171 10.5002 13.7833 10.4736C13.6494 10.4469 13.5265 10.3812 13.43 10.2847C13.3335 10.1882 13.2678 10.0653 13.2412 9.93143C13.2145 9.79758 13.2282 9.65884 13.2804 9.53276C13.3326 9.40668 13.4211 9.29892 13.5346 9.2231C13.648 9.14728 13.7814 9.10681 13.9179 9.10681C14.1009 9.10681 14.2764 9.17951 14.4058 9.30891C14.5352 9.43831 14.6079 9.61381 14.6079 9.79681ZM16.7718 9.79681C16.7718 9.93328 16.7313 10.0667 16.6555 10.1802C16.5797 10.2936 16.4719 10.3821 16.3459 10.4343C16.2198 10.4865 16.081 10.5002 15.9472 10.4736C15.8133 10.4469 15.6904 10.3812 15.5939 10.2847C15.4974 10.1882 15.4317 10.0653 15.4051 9.93143C15.3784 9.79758 15.3921 9.65884 15.4443 9.53276C15.4965 9.40668 15.585 9.29892 15.6985 9.2231C15.8119 9.14728 15.9453 9.10681 16.0818 9.10681C16.1724 9.10677 16.2622 9.12459 16.3459 9.15925C16.4297 9.19391 16.5058 9.24473 16.5699 9.3088C16.634 9.37288 16.6849 9.44896 16.7195 9.53269C16.7542 9.61643 16.7721 9.70618 16.7721 9.79681H16.7718ZM24.1518 15.6936C24.9216 15.3528 25.4601 14.6136 25.4811 13.7622C25.503 12.8622 24.9921 12.0864 24.1854 11.7039C23.6799 11.4639 23.142 11.4186 22.5918 11.4186H20.1771V18.5808H21.4344V16.0077H22.9596L24.495 18.5814H25.9698L24.1518 15.6936ZM24.2145 13.6815C24.2145 14.0388 24.0663 14.3787 23.7813 14.5986C23.5035 14.8131 23.1546 14.8986 22.8093 14.9073C22.4856 14.9166 21.5679 14.9073 21.4332 14.9073V12.5253H22.4232C22.8732 12.5253 23.3622 12.5076 23.7531 12.7692C24.0621 12.9762 24.2157 13.317 24.2157 13.6815H24.2145ZM32.6037 15.4563C32.4555 15.2189 32.2527 15.0205 32.0121 14.8776C32.2317 14.7432 32.4159 14.558 32.5491 14.3376C32.7072 14.0721 32.787 13.7646 32.787 13.4244C32.787 12.7989 32.568 12.3018 32.136 11.9469C31.71 11.5968 31.1265 11.4192 30.4011 11.4192H27.4521V18.582H30.4392C31.1703 18.582 31.7637 18.402 32.2023 18.0453C32.6472 17.6853 32.8728 17.1579 32.8728 16.4817C32.8728 16.083 32.7825 15.738 32.6049 15.4563H32.6037ZM31.329 17.1615C31.1238 17.3379 30.8241 17.4276 30.438 17.4276H28.6713V15.5076H30.3621C30.8172 15.5076 31.1472 15.5937 31.3434 15.7638C31.5396 15.9339 31.6323 16.1613 31.6323 16.4634C31.6332 16.7577 31.5342 16.9863 31.3302 17.1615H31.329ZM31.2819 14.0745C31.1055 14.2452 30.8184 14.3319 30.4287 14.3319H28.6713V12.5619H30.3999C30.7869 12.5619 31.0797 12.6393 31.2699 12.792C31.4601 12.9447 31.5462 13.1475 31.5462 13.422C31.5474 13.6896 31.461 13.9026 31.2831 14.0745H31.2819ZM35.7978 12.6123V14.3937H38.7354V15.5871H35.7978V17.3781H39.3354V18.5811H34.5771V11.4189H39.3366V12.6123H35.7978ZM7.5129 15L11.0943 18.5802H9.477L6.2844 15.4125V18.5805H5.0271V11.4183H6.2844V14.6037L9.4776 11.4183H11.0949L7.5129 15Z" fill="white"/>
</g>
<path d="M70.5244 9.148V17.464C70.5244 18.352 70.3444 19.156 69.9844 19.876C69.6244 20.584 69.0724 21.148 68.3284 21.568C67.5844 21.976 66.6484 22.18 65.5204 22.18C63.9124 22.18 62.6944 21.748 61.8664 20.884C61.0384 20.008 60.6244 18.856 60.6244 17.428V9.148H62.2444V17.482C62.2444 18.526 62.5204 19.336 63.0724 19.912C63.6364 20.488 64.4824 20.776 65.6104 20.776C66.7744 20.776 67.6144 20.47 68.1304 19.858C68.6584 19.234 68.9224 18.436 68.9224 17.464V9.148H70.5244ZM77.5344 22H72.8904V21.064L74.4024 20.722V10.444L72.8904 10.084V9.148H77.5344V10.084L76.0224 10.444V20.722L77.5344 21.064V22ZM94.0878 22H92.1798L87.6258 15.862L86.3118 17.014V22H84.6918V9.148H86.3118V15.484C86.6718 15.076 87.0378 14.668 87.4098 14.26C87.7818 13.852 88.1538 13.444 88.5258 13.036L91.9998 9.148H93.8898L88.7958 14.746L94.0878 22ZM96.4303 8.734C96.6703 8.734 96.8803 8.818 97.0603 8.986C97.2523 9.142 97.3483 9.394 97.3483 9.742C97.3483 10.09 97.2523 10.348 97.0603 10.516C96.8803 10.672 96.6703 10.75 96.4303 10.75C96.1663 10.75 95.9443 10.672 95.7643 10.516C95.5843 10.348 95.4943 10.09 95.4943 9.742C95.4943 9.394 95.5843 9.142 95.7643 8.986C95.9443 8.818 96.1663 8.734 96.4303 8.734ZM97.2043 12.352V22H95.6203V12.352H97.2043ZM103.483 20.884C103.723 20.884 103.969 20.866 104.221 20.83C104.473 20.794 104.677 20.746 104.833 20.686V21.892C104.665 21.976 104.425 22.042 104.113 22.09C103.801 22.15 103.501 22.18 103.213 22.18C102.709 22.18 102.241 22.096 101.809 21.928C101.389 21.748 101.047 21.442 100.783 21.01C100.519 20.578 100.387 19.972 100.387 19.192V13.576H99.019V12.82L100.405 12.19L101.035 10.138H101.971V12.352H104.761V13.576H101.971V19.156C101.971 19.744 102.109 20.182 102.385 20.47C102.673 20.746 103.039 20.884 103.483 20.884Z" fill="white"/>
<defs>
<clipPath id="clip0_20458_3080">
<rect width="51.0045" height="30" fill="white"/>
</clipPath>
</defs>
</svg>
